<svg xmlns="http://www.w3.org/2000/svg" data-name="Capa 1" width="512" height="512"><path fill="#eee" d="M102.94 138.5H76.18a28.65 28.65 0 00-28.62 28.61v55.11a28.65 28.65 0 0028.62 28.61h26.76a7.5 7.5 0 007.5-7.5V146a7.5 7.5 0 00-7.5-7.5z"/><path fill="#ccc" d="M435.83 138.5h-26.76a7.5 7.5 0 00-7.5 7.5v97.33a7.49 7.49 0 007.5 7.5h26.76a28.64 28.64 0 0028.61-28.61v-55.11a28.65 28.65 0 00-28.61-28.61z"/><path fill="#eee" d="M314.48 341.16h-117a90.86 90.86 0 00-90.76 90.76v72.58a7.5 7.5 0 007.5 7.5h283.51a7.5 7.5 0 007.5-7.5v-72.58a90.86 90.86 0 00-90.75-90.76z"/><path fill="#ccc" d="M314.48 341.16h-28.84a90.86 90.86 0 0190.76 90.76v72.58a7.5 7.5 0 01-7.5 7.5h28.84a7.5 7.5 0 007.5-7.5v-72.58a90.88 90.88 0 00-90.76-90.76z"/><circle fill="#f0eeee" cx="256" cy="177.38" r="169.88"/><path fill="#eee" d="M256 0C158.19 0 78.62 79.57 78.62 177.38S158.19 354.77 256 354.77s177.38-79.58 177.38-177.39C433.38 79.57 353.81 0 256 0z"/><path fill="#ccc" d="M256 0c-5.36 0-10.67.25-15.91.72 90.38 8.07 161.47 84.22 161.47 176.66S330.47 346 240.09 354.05c5.24.46 10.55.72 15.91.72 97.81 0 177.38-79.58 177.38-177.39C433.38 79.57 353.81 0 256 0z"/><ellipse fill="#777" cx="256" cy="330.03" rx="128.29" ry="56.3"/><path fill="#444" d="M256 273.73c-2.06 0-4.1 0-6.14.06 61.79 1.41 111 26 111 56.24 0 30.24-49.21 54.83-111 56.23 2 .05 4.08.07 6.14.07 70.85 0 128.29-25.21 128.29-56.3 0-31.09-57.44-56.3-128.29-56.3z"/><path fill="#333" d="M428.58 136.24a7.55 7.55 0 00-1.54-3.07 197.26 197.26 0 00-75.82-55.77c-28.66-12.05-60.7-18.16-95.22-18.16-34.52 0-66.56 6.11-95.22 18.16A197.36 197.36 0 0085 133.17a7.55 7.55 0 00-1.54 3.07 178.22 178.22 0 00-4.8 41.14c0 97.81 79.57 177.39 177.38 177.39s177.38-79.58 177.38-177.39a178.22 178.22 0 00-4.84-41.14z"/><path d="M433.31 172.45c0-.47 0-.93-.05-1.4 0-1.18-.09-2.37-.16-3.56 0-.53-.06-1.05-.1-1.58-.07-1.13-.15-2.26-.24-3.38l-.15-1.61c-.1-1.12-.22-2.24-.34-3.36l-.18-1.59q-.21-1.69-.45-3.39l-.21-1.53c-.18-1.17-.37-2.35-.57-3.52-.08-.45-.15-.91-.23-1.36-.27-1.52-.56-3-.86-4.54-.19-.9-.39-1.79-.59-2.69-.14-.61-.27-1.23-.41-1.84l-.3-1.21a7.48 7.48 0 00-1.43-2.72A195.5 195.5 0 00379.64 92a176.33 176.33 0 0121.93 85.34c0 92.45-71.1 168.59-161.48 176.67 1.28.11 2.57.21 3.85.3h.31c1.18.08 2.37.14 3.56.2l1.24.05 2.76.09c1.39 0 2.79.06 4.19.06 97.81 0 177.39-79.58 177.39-177.39-.01-1.58-.03-3.23-.08-4.87z"/><circle fill="#444" cx="179.25" cy="436.33" r="20.33"/><path d="M334.88 414.5h-42.76A20.12 20.12 0 00272 434.62v27.43a20.12 20.12 0 0020.12 20.12h42.76A20.12 20.12 0 00355 462.05v-27.43a20.12 20.12 0 00-20.12-20.12z"/><path fill="#eee" d="M329.67 443.83h-34.34a7.5 7.5 0 010-15h34.34a7.5 7.5 0 010 15zm0 24h-34.34a7.5 7.5 0 010-15h34.34a7.5 7.5 0 010 15z"/></svg>