<svg xmlns="http://www.w3.org/2000/svg" height="512" width="512" xml:space="preserve" viewBox="0 2 98 97.999999" y="0" x="0" id="Layer_1" version="1.1"><g transform="matrix(1.22423 0 0 1.22423 -10.987508 -23.925062)" id="g145"><linearGradient gradientTransform="matrix(1 0 0 -1 0 104)" y2="19.858601" x2="76.756104" y1="90.666702" x1="76.756104" gradientUnits="userSpaceOnUse" id="SVGID_1_"><stop id="stop124" offset="0" stop-color="#00efd1"/><stop id="stop126" offset="1" stop-color="#00acea"/></linearGradient><linearGradient gradientTransform="matrix(1 0 0 -1 0 104)" y2="19.858601" x2="21.2633" y1="90.666702" x1="21.2633" gradientUnits="userSpaceOnUse" id="SVGID_2_"><stop id="stop131" offset="0" stop-color="#00efd1"/><stop id="stop133" offset="1" stop-color="#00acea"/></linearGradient><linearGradient gradientTransform="matrix(1 0 0 -1 .00000208 112.26327)" y2="19.858601" x2="49.0914" y1="90.666702" x1="49.0914" gradientUnits="userSpaceOnUse" id="SVGID_3_"><stop id="stop138" offset="0" stop-color="#00efd1"/><stop id="stop140" offset="1" stop-color="#00acea"/></linearGradient><path d="M53.900002 29.463273c-1.6-.2-3.2.9-3.4 2.5l-8.8 57.6c-.2 1.6.9 3.2 2.5 3.4h.5c1.5 0 2.7-1.1 3-2.5l8.8-57.6c.1-1.6-1-3.1-2.6-3.4zm-21.3 10c-1.2-1.1-3.1-1.1-4.2.1l-18.5999999 19.6c-1.1 1.2-1.1 3 0 4.1l18.4999999 19.6c.6.6 1.4.9 2.2.9.7 0 1.5-.3 2.1-.8 1.2-1.1 1.3-3 .1-4.2l-16.6-17.5 16.6-17.5c1.1-1.2 1.1-3.1-.1-4.3zm55.6 19.7l-18.5-19.6c-1.1-1.2-3-1.3-4.2-.1-1.2 1.1-1.3 3-.1 4.2l16.5 17.6-16.6 17.5c-1.1 1.2-1.1 3.1.1 4.2.6.5 1.3.8 2.1.8s1.6-.3 2.2-.9l18.5-19.6c1.1-1.1 1.1-2.9 0-4.1z" id="path143" fill="url(#SVGID_3_)"/></g></svg>