<svg xmlns="http://www.w3.org/2000/svg" width="512" viewBox="0 0 384.13433 384" height="512"><path d="M383.6077818 191.75987932c0 105.94579499-85.87292021 191.82966722-191.80258364 191.82966722C85.87292021 383.58954654 0 297.7056743 0 191.75987932 0 85.81670589 85.87292021-.067165 191.80519816-.067165c105.92966343 0 191.80258364 85.88387089 191.80258364 191.82704432zm0 0" fill="#f04528"/><path d="M310.81534658 41.38715165c0 .5159526.03928493 1.02404787.03928493 1.54000046-.01309945 144.73129396-105.21475827 267.98638312-248.12853818 290.72235461 78.09009693 71.58386514 199.41780777 66.30647615 270.99515898-11.7883411 71.57473668-78.09481725 66.30325642-199.44848147-11.78683784-271.03496013-3.5850241-3.2895262-7.29573984-6.4376234-11.11906789-9.43905384zm0 0" fill="#dc3519"/><path d="M255.46356026 290.98256997c-21.91865416 0-39.68402043-17.76763202-39.68402043-39.68907492 0-21.9214429 17.76536627-39.68907492 39.68402043-39.68907492 21.91864745 0 39.68401372 17.76763202 39.68401372 39.68907492-.0209162 21.9083485-17.77845901 39.6628861-39.68401372 39.68907492zm0-66.14671496c-14.60981488 0-26.45426613 11.84596187-26.45426613 26.45764004 0 14.61167817 11.84445125 26.4602549 26.45426613 26.4602549 14.60980817 0 26.45688065-11.84857673 26.45688065-26.4602549s-11.84707248-26.45764004-26.45688065-26.45764004zm0 0M125.66430379 132.22626358c-14.60981488 0-26.45426613-11.84596186-26.45426613-26.45764004 0-14.61167146 11.84445125-26.4602549 26.45426613-26.4602549 14.60981487 0 26.45688065 11.84858344 26.45688065 26.4602549 0 14.61167818-11.84706578 26.45764004-26.45688065 26.45764004zm0-39.68645335c-7.30883929 0-13.22713307 5.91904859-13.22713307 13.22881331 0 7.30714987 5.92091501 13.22882002 13.22713307 13.22882002 7.30883257 0 13.22974759-5.91904858 13.22974759-13.22882002 0-7.30976472-5.92091502-13.22881331-13.2297476-13.22881331zm0 0M372.9077151 158.13128334c-11.37046458-4.24024203-21.99197483-10.27453215-31.46387148-17.8592996-22.59951685-18.01906077-50.62762683-27.85097103-79.53038948-27.89025426h-1.3250684c-28.9080051.03928993-56.95182906 9.87642991-79.5513459 27.9085918-20.24004828 16.15429751-45.35091082 24.9700132-71.24477015 25.00930314H1.85928837c-.6023049 4.3659564-1.05796175 8.77905403-1.35649498 13.23143488h109.2894763c28.90799841-.03928994 56.95182237-9.87643662 79.55133921-27.9085918 20.24005498-16.15429752 45.35091752-24.97001992 71.24739137-25.0119247h1.32245387c25.90695206.0340602 51.03352857 8.85239076 71.28405506 25.0119247 10.57698958 8.45953165 22.42929782 15.18001443 35.12221627 19.90477643 4.68226004 1.69976566 9.53736034 2.8966671 14.47101708 3.56452893-.44517997-4.62262159-1.0265365-9.20072352-1.75977685-13.72644111-2.76012116-.53428275-5.47834957-1.2833326-8.1232506-2.23404841zm0 0" fill="#c23017"/><path d="M38.90363816 84.85289566c13.04905974-1.10523387 25.80744189-4.48642765 37.69903237-9.9811986l11.50924896-5.74880785c25.79958892-12.6342983 55.9933775-12.6342983 81.79558095 0l11.4935417 5.74880785c14.53125173 7.24167782 30.54469813 11.02620356 46.78073452 11.05239238h123.5824241c-3.02199607-4.55714954-6.23777541-8.96238918-9.63163076-13.22882002H228.18177666c-14.1934349-.02091888-28.19570778-3.32095146-40.90171896-9.65905468l-11.4935417-5.74881388c-29.53125438-14.46501073-64.09044262-14.46501073-93.621697 0l-11.50663444 5.74881388c-8.81197966 4.10929123-18.20793104 6.8016708-27.85789766 7.97762655-3.62430232 4.46547526-7.07053198 9.08810355-10.28631467 13.89143872h5.7218933c.22520987-.00784458.44780053-.02621564.66777263-.05236423zm0 0M301.65508128 204.0117947c-25.66079113-25.1559699-66.71963638-25.1559699-92.38304874 0-12.68505476 12.9957221-29.9816701 20.47834912-48.13723086 20.82144545H2.89629906c.78037757 4.46547526 1.68645348 8.87857288 2.76536362 13.22881332h155.473139c21.62273678-.33523834 42.23726557-9.174528 57.39700903-24.60072806 20.50978016-20.11953682 53.35371223-20.11953682 73.8634924 0 15.15974345 15.42620006 35.77427224 24.26287486 57.39700902 24.60072806h28.15380833c1.07891416-4.35024044 1.98498807-8.76333806 2.76536362-13.22881332H349.7896909c-18.15293281-.34833945-35.44955487-7.83095977-48.13460962-20.82144545zm0 0M292.3953031 289.12304313c-20.50978016 20.12215838-53.35371223 20.12215838-73.86349239 0-15.15974346-15.42620007-35.77427225-24.26287486-57.39700903-24.60072806H14.3191366c1.85143206 4.49952877 3.87046124 8.91000483 6.04399548 13.22882002h140.77166959c18.15556075.34571119 35.4521761 7.82571665 48.13723086 20.82406031 25.66079783 25.1559699 66.71963638 25.1559699 92.38304874 0 12.68505475-12.99048568 29.9816768-20.4731127 48.13723085-20.8240603h13.45233758c2.1761568-4.3188152 4.1925661-8.72929126 6.04399883-13.22882003h-19.4963364c-21.62273679.3378532-42.23726558 9.174528-57.39700904 24.60072806zm0 0M224.87434144 357.12928493c0-18.51929672-20.33694661-33.07335413-46.29626964-33.07335413-25.96195096 0-46.29889087 14.55405741-46.29889087 33.07335413.15188383 7.48786345 3.35980618 14.59334734 8.88268314 19.65334768 16.50052582 4.5178596 33.53265174 6.80691393 50.6433341 6.80691393 5.44954956 0 10.82577174-.2828607 16.15747995-.72809745 9.88041292-4.88190833 16.348642-14.72429814 16.91166332-25.73216416zm-46.29626964 19.84454081c-17.92511378 0-33.0717645-9.08810355-33.0717645-19.8445408 0-10.7538157 15.14665072-19.84453412 33.0717645-19.84453412 17.92248585 0 33.06913658 9.09071841 33.06913658 19.84453411 0 10.75643726-15.14665073 19.84454081-33.06913658 19.84454081zm0 0" fill="#c23017"/></svg>