<svg xmlns="http://www.w3.org/2000/svg" viewBox="0 0 512 511.81"><g><path d="M60.85 401.03l-15.79-7.89 37.74-75.47h58.4v17.65H93.7zM247.09 52.9h17.65v88.24h-17.65zM194.14 141.18h-17.65V74.24L135 32.71l12.48-12.48 46.66 46.67zM324.64 501.21l-77.55-46.16v-84.43h17.65v74.4l68.93 41zM397.1 450.03h-79.42v-79.41h17.65v61.77h61.77zM147.44 491.57L135 479.09l41.53-41.53v-66.94h17.65v74.28zM425.66 264.72h-55v-17.64h50.86l68.73-34.37 7.89 15.79zM479.11 359.21l-23.89-23.89h-84.59v-17.65h91.89l29.06 29.06zM32.14 271.5l-11.32-13.55 55.41-46.17h65v17.65H82.65zM141.2 194.13H93.42l-46.7-46.71 12.47-12.47 41.54 41.53h40.47z" fill="#4e901e"/><rect x="141.2" y="141.19" width="229.43" height="229.43" rx="35.3" fill="#ffb655"/><path d="M361.8 352.97H203a35.3 35.3 0 01-35.3-35.3V158.83a35 35 0 014.67-17.23 35.16 35.16 0 00-31.17 34.88v158.84a35.3 35.3 0 0035.29 35.3h158.84A35.13 35.13 0 00366 352.55a36.18 36.18 0 01-4.2.42z" fill="#ffa733"/><circle cx="255.91" cy="44.12" r="17.65" fill="#7ed63e"/><circle cx="397.1" cy="35.3" r="17.65" fill="#7ed63e"/><circle cx="132.37" cy="17.65" r="17.65" fill="#7ed63e"/><circle cx="326.51" cy="494.16" r="17.65" fill="#7ed63e"/><circle cx="405.93" cy="441.21" r="17.65" fill="#7ed63e"/><circle cx="132.37" cy="494.16" r="17.65" fill="#7ed63e"/><circle cx="458.95" cy="140.98" r="17.65" fill="#7ed63e"/><circle cx="494.34" cy="361.57" r="17.65" fill="#7ed63e"/><circle cx="494.28" cy="220.38" r="17.65" fill="#7ed63e"/><circle cx="52.99" cy="141.26" r="17.65" fill="#7ed63e"/><circle cx="52.8" cy="397.24" r="17.64" fill="#7ed63e"/><path d="M17 291.2a17.65 17.65 0 0018.32-16.95 17.6 17.6 0 00-4.83-12.83l-4 3.3 4-3.3a17.64 17.64 0 00-24.95-.66 17.65 17.65 0 00-.65 25A17.62 17.62 0 0017 291.2z" fill="#7ed63e"/><path d="M211.79 70.59h17.65v17.65h-17.65zM441.22 282.37h17.65v17.65h-17.65zM282.39 423.56H300v17.65h-17.61zM211.79 450.03h17.65v17.65h-17.65zM70.6 247.08h17.65v17.64H70.6zM282.39 70.59H300v17.65h-17.61zM423.57 211.78h17.65v17.65h-17.65zM379.45 123.54h17.65v17.64h-17.65zM114.72 123.54h17.65v17.64h-17.65zM379.45 370.62h17.65v17.64h-17.65zM114.72 370.62h17.65v17.64h-17.65z" fill="#4e901e"/><path d="M300 238.25h-17.61v-26.47a26.48 26.48 0 00-26.48-26.47 26.47 26.47 0 00-26.47 26.47v26.47h-17.65v-26.47a44.12 44.12 0 0144.12-44.12A44.12 44.12 0 01300 211.78z" fill="#004fac"/><path d="M282.39 105.9H300v35.29h-17.61zM335.33 141.18h-17.65v-38.95L382 37.9l12.48 12.48-59.15 59.16zM211.79 105.9h17.65v35.29h-17.65zM282.39 370.62H300v35.28h-17.61zM211.79 370.62h17.65v61.77h-17.65zM370.63 282.37h52.94v17.65h-52.94zM370.63 211.78h35.3v17.65h-35.3zM418.4 194.13h-47.77v-17.65h40.47l32.71-32.71 12.48 12.48zM53 282.37h88.25v17.65H53zM105.9 247.08h35.3v17.64h-35.3z" fill="#4e901e"/><rect x="202.97" y="229.43" width="105.89" height="105.89" rx="17.65" fill="#006df0"/><path d="M220.62 300.02v-70.59A17.7 17.7 0 00203 247.08v70.59a17.71 17.71 0 0017.62 17.65h70.59a17.71 17.71 0 0017.65-17.65h-70.6a17.69 17.69 0 01-17.64-17.65z" fill="#005ece"/><circle cx="256.05" cy="273.43" r="17.65" fill="#f1f2f2"/><path d="M254.87 247.08a26.41 26.41 0 00-25.55 27.25 26.41 26.41 0 0017.77 24.12v19.22h17.65v-19.28a26.42 26.42 0 0016.19-33.66 26.4 26.4 0 00-26.06-17.65zm9.87 26.12a8.83 8.83 0 01-8.47 9.17 8.84 8.84 0 01-6.35-2.34 8.83 8.83 0 01-.5-12.47 8.88 8.88 0 016.14-2.84h.35a8.84 8.84 0 018.83 8.48z" fill="#004fac"/></g></svg>