<svg xmlns="http://www.w3.org/2000/svg" viewBox="0 0 512 512"><path d="M182.82 245.89L136 213.62a3.49 3.49 0 01-.5-5.34l23.58-23.57a13.83 13.83 0 0110.88-4l70.15 5.2zM273.45 333.29l27.21 44.95a3.49 3.49 0 005.34.5l23.58-23.58a13.81 13.81 0 004-10.88l-5.27-66.91zM181.47 381.41l-48.6-48.6a4.84 4.84 0 01-.63-6.05l32-49.39L236.91 350l-49.39 32a4.83 4.83 0 01-6.05-.63z" fill="#222"/><path d="M215.06 328.14l-52.68 34.18 19.09 19.09a4.84 4.84 0 006.05.64L236.91 350z"/><path d="M448.28 163.61L249.92 362a6.61 6.61 0 01-9.35 0l-88.27-88.29a6.6 6.6 0 010-9.34L353.38 63.29A219.77 219.77 0 01458.31 4.53c21.47-5 41.46-7 48.72.21 6.26 6.27 5.91 22.37 2.75 40.8a219.75 219.75 0 01-61.5 118.07z" fill="#eee"/><path d="M509.78 45.54c3.16-18.43 3.51-34.54-2.78-40.8C503.71 1.42 497.71 0 490.13 0a129.41 129.41 0 01-2.2 23.69 219.78 219.78 0 01-61.5 118.07L228.06 340.12a6.6 6.6 0 01-9.35 0L240.57 362a6.6 6.6 0 009.34 0l198.37-198.39a219.78 219.78 0 0061.5-118.07z" fill="#ccc"/><path d="M448.28 163.61l-14.5 14.5-97.61-97.61 17.21-17.21A219.73 219.73 0 01458.31 4.53c21.47-5 41.47-7 48.71.21 6.28 6.27 5.93 22.37 2.76 40.8a219.75 219.75 0 01-61.5 118.07z" fill="#58b7ff"/><path d="M509.78 45.54C513 27.11 513.3 11 507 4.74 503.71 1.42 497.71 0 490.13 0a128.51 128.51 0 01-2.2 23.68 219.89 219.89 0 01-61.5 118.07l-14.5 14.5 21.85 21.85 14.5-14.5a219.75 219.75 0 0061.5-118.06z" fill="#4692cc"/><path d="M290.11 126.51l97.59 97.6-30.59 30.59-97.59-97.6z" fill="#222"/><path d="M335.22 232.92l30.59-30.59 21.85 21.85-30.59 30.59z"/><path d="M111.68 360.48C72 372.33 16.75 407.31 0 509.29a2.34 2.34 0 002.9 2.63c19.77-5.27 118.67-35.26 145.34-114.2 7.61-22.52-13.58-44.1-36.59-37.24z" fill="orange"/><path d="M111.68 360.48q-3.78 1.13-7.68 2.52c11.47 6.51 18.24 20.41 13.41 34.7-19.7 58.2-78.59 89.79-116.12 104.49-.44 2.34-.86 4.7-1.26 7.1a2.34 2.34 0 002.9 2.63c19.77-5.27 118.67-35.26 145.34-114.2 7.61-22.52-13.58-44.1-36.59-37.24z" fill="#f25817"/></svg>