<svg xmlns="http://www.w3.org/2000/svg" height="512" width="512"><defs id="defs12"/><path d="M277.29678 321.25h2.51v-2.5a.82.82 0 00-.84-.84h-52.7a.82.82 0 00-.84.84v2.5h3.35l3.34 7.53a2.93 2.93 0 001.68.84 8.28 8.28 0 003.34.84h12.55c.84 0 2.51 0 2.51.83v.84a.82.82 0 01-.83.87c-4.19 2.51-11.72 7.53-15.06 10-.84 0-1.68.83-2.51 2.51v52.7l-4.19 1.68a.81.81 0 00-.83.83c-.84 5-.84 11.71.83 12.55.84.84 12.55.84 24.26.84 10.88 0 21.76-.84 22.59-.84 1.68-.84 1.68-5 .84-12.55l-.84-.83-4.18-1.68v-66.92zm-99.56-174.84l-5.85 3.34a4.34 4.34 0 00-1.68 3.35v270.22c.84 5 8.37 5 16.74 5 6.69 0 15.06 0 15.89-5V143.9a2.93 2.93 0 01.84-1.68h1.67a2.21 2.21 0 002.51-2.51v-4.18a4.31 4.31 0 00-3.34-1.67h-37.65a2.22 2.22 0 00-2.51 2.51v4.18a2.22 2.22 0 002.51 2.51h11.71a2.89 2.89 0 011.67.84c.84.83-1.67 2.51-2.51 2.51zm-73.62 15.89l-5.849998 3.35a4.32 4.32 0 00-1.68 3.35v244.28c.84 5 8.369998 5 16.739998 5 6.69 0 15-.84 15.89-5V159.79a2.89 2.89 0 01.84-1.67h1.67a2.22 2.22 0 002.51-2.51v-4.19a4.37 4.37 0 00-3.35-1.67H93.246782a2.22 2.22 0 00-2.51 2.51v4.18a2.21 2.21 0 002.51 2.56h11.719998a2.89 2.89 0 011.67.84c.83.79-1.67 2.46-2.52 2.46zm236.76-22.59v-4.18a4.33 4.33 0 00-3.34-1.67h-37.65a2.21 2.21 0 00-2.51 2.51v4.18a2.22 2.22 0 002.51 2.51h11.71a2.89 2.89 0 011.67.84c.84.83-1.67 2.51-2.51 2.51l-5.85 3.34a4.34 4.34 0 00-1.68 3.35v270.22c.84 5 8.37 5 16.74 5 6.69 0 15.06 0 15.89-5V143.9a2.93 2.93 0 01.84-1.68h1.67a2.22 2.22 0 002.51-2.51zm119.64 297V435c-.84-5-8.37-5.85-29.29-5.85l-.83-12.55a.84.84 0 10-1.68 0c0 .83-2.5 2.51-6.69 5-18.4 10-87 25.1-169 25.1a605.47 605.47 0 01-120.46-11.7c-33.469998-6.69-50.999998-15.06-55.219998-19.24h-.83c-.84 0-.84 0-.84.84v20.91l.84.84c34.299998 24.26 135.519998 43.5 231.729998 33.46h2.51a3.84 3.84 0 014.19 0l.83.84a10 10 0 01-2.51 1.67c-61.07 20.08-201.62 14.23-260.999998-30.95h-.83a.82.82 0 00-.84.84v17.59c0 18.41 68.599998 50.2 205.799998 50.2 133 0 205.81-32.63 205-51zM67.306782 123a87.5 87.5 0 0124.26-16.73c12.549998-5.86 33.469998-12.55 56.889998-16.73 30.12-5.86 67.77-9.21 101.23-9.21a532.11 532.11 0 01103.74 10c30.12 5.86 53.54 14.23 68.6 21.75 7.53 3.35 10.88 6.7 15.9 10.88 4.18 4.18 4.18.84 4.18-.84 0 0-.84-5-6.69-16.73-20.08-35.95-71.95-105.39-183.22-105.39-69.44 0-111.27 22.59-138.87 48.52l-.84.84c-.84 1.67-.84 3.35 2.51 2.51 59.4-25.1 123.82-9.2 144.73 14.22.84.84 0 1.67-.84 1.67-20.91 0-38.48-.83-77 4.19-20.92 3.34-39.32 5.85-55.22 10-25.93 6.69-44.339998 15.06-54.379998 21.75a9.49 9.49 0 00-5 5 51.5 51.5 0 01-1.67 5.85c-1.67 4.19-1.67 6.7-2.51 8.37-.82 2.57 2.53 1.73 4.2.08zm350.539998 3.33c-8.37-9.21-79.48-30.12-165.65-30.12-92 0-149.75 18.4-162.299998 26.77 0 0-3.35 1.67-3.35 4.18a34.64 34.64 0 001.68 5l2.51 5c.83 1.68 1.67 1.68 3.34 0 0 0 1.68-.83 1.68-1.67a18.89 18.89 0 00-.84-3.35c-1.67-3.34.84-4.18.84-4.18l4.999998-2.51c2.51-.84 2.51.84 3.34 2.51a12 12 0 001.68 3.35c1.67.83 5.85-1.68 17.57-5a6.29 6.29 0 003.34-.84c.84-.84 0-5 0-5-.84-1.67-1.67-4.18 3.35-5l7.53-1.67c3.34-.84 4.18.83 4.18 3.34 0 0 0 3.35.84 4.19.83 1.67 2.51-.84 26.77-3.35 0 0 3.34 0 4.18-1.67.84-1.67 0-4.19 0-4.19 0-2.51-1.67-5 4.18-5l10-.83c7.53-1.67 6.7 1.67 6.7 4.18 0 0 0 3.35.83 3.35.84.83 3.35.83 3.35.83 13.38-1.67 20.91-1.67 35.14-1.67a4.12 4.12 0 002.51-.84 2.58 2.58 0 00.83-1.67c0-1.67 0-4.18.84-5 .84-.82 3.35-.83 5-.83h11.79c1.67 0 5.86-.84 6.69.83.84.84.84 5.86.84 5.86s1.67 2.51 1.67 3.34a2.6 2.6 0 001.68.84c67.75-2.39 107.32 21.77 113.81 33.47h-5.89a2.21 2.21 0 00-2.51 2.5v4.19a2.22 2.22 0 002.51 2.51h11.71a2.9 2.9 0 011.67.83c.84.84-1.67 2.51-2.5 2.51l-5.86 3.35a4.34 4.34 0 00-1.67 3.35v244.22c.83 5 8.36 5 16.73 5 6.69 0 15.06 0 15.89-5V159a2.93 2.93 0 01.84-1.67h1.65a2.22 2.22 0 002.51-2.51v-4.18a4.31 4.31 0 00-3.34-1.67h-2.11l8.8-18.41c.86-1.72.02-4.23.02-4.23z" id="path26" fill="#4b9cd3" fill-opacity="1"/></svg>